<svg xmlns="http://www.w3.org/2000/svg" width="668" height="633" viewBox="0 0 668 633"><defs><style type="text/css"/></defs><g transform="translate(294.11881256118534 290.2726349321746) scale(1)"><g class="relationship"><g transform="translate(222.69890057470576 -50.88840425139179) rotate(180)" stroke-width="5" stroke="#000000"><path d="M 59 0 L 180.14838010268107 0"/><polygon points="-24.8621506177483,0 -27.62461179749811,9.20820393249937 0,0 -27.62461179749811,-9.20820393249937" fill="#000000" transform="translate(205.01053072042936 0) rotate(0)" stroke="none"/></g><g transform="translate(103.12471052336522 -50.888404251391776) rotate(360) translate(0 -13)"><g transform="translate(0 0)"><g transform="translate(-13.8984375 0)" fill="#ffffff" stroke="#000000" stroke-width="0"><rect x="0" y="0" width="27.796875" height="26" rx="5" ry="5" stroke="none"/><text xml:space="preserve" x="5" y="18" stroke="none" text-anchor="left" font-family="sans-serif" font-size="16" font-weight="normal" fill="#000000">10</text></g></g></g></g><g class="relationship"><g transform="translate(279.7832763154612 -236.27263493217455) rotate(107.11488947324872)" stroke-width="5" stroke="#000000"><path d="M 59 0 L 110.11191707898647 0"/><polygon points="-24.8621506177483,0 -27.62461179749811,9.20820393249937 0,0 -27.62461179749811,-9.20820393249937" fill="#000000" transform="translate(134.97406769673475 0) rotate(0)" stroke="none"/></g><g transform="translate(254.8994134068657 -155.46110424948841) rotate(287.1148894732487) translate(0 -13)"><g transform="translate(0 0)"><g transform="translate(-16.12109375 0)" fill="#ffffff" stroke="#000000" stroke-width="0"><rect x="0" y="0" width="32.2421875" height="26" rx="5" ry="5" stroke="none"/><text xml:space="preserve" x="5" y="18" stroke="none" text-anchor="left" font-family="sans-serif" font-size="16" font-weight="normal" fill="#000000">0.5</text></g></g></g></g><g class="relationship"><g transform="translate(319.6859344230732 117.09806604938296) rotate(-120.00000000000001)" stroke-width="5" stroke="#000000"><path d="M 59 0 L 110.1119170789865 0"/><polygon points="-24.8621506177483,0 -27.62461179749811,9.20820393249937 0,0 -27.62461179749811,-9.20820393249937" fill="#000000" transform="translate(134.97406769673478 0) rotate(0)" stroke="none"/></g><g transform="translate(277.40795515332655 43.87045791283808) rotate(59.999999999999986) translate(0 -13)"><g transform="translate(0 0)"><g transform="translate(-9.44921875 0)" fill="#ffffff" stroke="#000000" stroke-width="0"><rect x="0" y="0" width="18.8984375" height="26" rx="5" ry="5" stroke="none"/><text xml:space="preserve" x="5" y="18" stroke="none" text-anchor="left" font-family="sans-serif" font-size="16" font-weight="normal" fill="#000000">1</text></g></g></g></g><g class="relationship"><g transform="translate(-240.11881256118534 -50.88840425139179) rotate(0)" stroke-width="5" stroke="#000000"><path d="M 59 0 L 114.94503179771345 0"/><polygon points="-24.8621506177483,0 -27.62461179749811,9.20820393249937 0,0 -27.62461179749811,-9.20820393249937" fill="#000000" transform="translate(139.80718241546174 0) rotate(0)" stroke="none"/></g><g transform="translate(-153.1462966623286 -50.88840425139179) rotate(0) translate(0 -13)"><g transform="translate(0 0)"><g transform="translate(-9.44921875 0)" fill="#ffffff" stroke="#000000" stroke-width="0"><rect x="0" y="0" width="18.8984375" height="26" rx="5" ry="5" stroke="none"/><text xml:space="preserve" x="5" y="18" stroke="none" text-anchor="left" font-family="sans-serif" font-size="16" font-weight="normal" fill="#000000">5</text></g></g></g></g><g class="relationship"><g transform="translate(-41.3116301457236 147.91877816406992) rotate(-90)" stroke-width="5" stroke="#000000"><path d="M 59 0 L 114.94503179771343 0"/><polygon points="-24.8621506177483,0 -27.62461179749811,9.20820393249937 0,0 -27.62461179749811,-9.20820393249937" fill="#000000" transform="translate(139.8071824154617 0) rotate(0)" stroke="none"/></g><g transform="translate(-41.31163014572359 60.94626226521321) rotate(90) translate(0 -13)"><g transform="translate(0 0)"><g transform="translate(-9.44921875 0)" fill="#ffffff" stroke="#000000" stroke-width="0"><rect x="0" y="0" width="18.8984375" height="26" rx="5" ry="5" stroke="none"/><text xml:space="preserve" x="5" y="18" stroke="none" text-anchor="left" font-family="sans-serif" font-size="16" font-weight="normal" fill="#000000">3</text></g></g></g></g><g class="relationship"><g transform="translate(166.9105037004836 288.49668499863384) rotate(-145.97536364546673)" stroke-width="5" stroke="#000000"><path d="M 59 0 L 167.3720128900341 0"/><polygon points="-24.8621506177483,0 -27.62461179749811,9.20820393249937 0,0 -27.62461179749811,-9.20820393249937" fill="#000000" transform="translate(192.23416350778243 0) rotate(0)" stroke="none"/></g><g transform="translate(73.1022753351484 225.16353139068084) rotate(34.02463635453328) translate(0 -13)"><g transform="translate(0 0)"><g transform="translate(-9.44921875 0)" fill="#ffffff" stroke="#000000" stroke-width="0"><rect x="0" y="0" width="18.8984375" height="26" rx="5" ry="5" stroke="none"/><text xml:space="preserve" x="5" y="18" stroke="none" text-anchor="left" font-family="sans-serif" font-size="16" font-weight="normal" fill="#000000">2</text></g></g></g></g><g class="relationship"><g transform="translate(-181.8895369802875 288.49668499863384) rotate(-45.00000000000001)" stroke-width="5" stroke="#000000"><path d="M 59 0 L 114.9450317977134 0"/><polygon points="-24.8621506177483,0 -27.62461179749811,9.20820393249937 0,0 -27.62461179749811,-9.20820393249937" fill="#000000" transform="translate(139.80718241546168 0) rotate(0)" stroke="none"/></g><g transform="translate(-120.39068121135111 226.99782922969746) rotate(-45.00000000000001) translate(0 -13)"><g transform="translate(0 0)"><g transform="translate(-16.12109375 0)" fill="#ffffff" stroke="#000000" stroke-width="0"><rect x="0" y="0" width="32.2421875" height="26" rx="5" ry="5" stroke="none"/><text xml:space="preserve" x="5" y="18" stroke="none" text-anchor="left" font-family="sans-serif" font-size="16" font-weight="normal" fill="#000000">0.5</text></g></g></g></g><g class="relationship"><g transform="translate(319.6859344230732 117.09806604938296) rotate(131.71207929300203)" stroke-width="5" stroke="#000000"><path d="M 59 0 L 145.74146174534866 0"/><polygon points="-24.8621506177483,0 -27.62461179749811,9.20820393249937 0,0 -27.62461179749811,-9.20820393249937" fill="#000000" transform="translate(170.60361236309694 0) rotate(0)" stroke="none"/></g><g transform="translate(251.56970427541194 193.5176036682168) rotate(311.7120792930021) translate(0 -13)"><g transform="translate(0 0)"><g transform="translate(-16.12109375 0)" fill="#ffffff" stroke="#000000" stroke-width="0"><rect x="0" y="0" width="32.2421875" height="26" rx="5" ry="5" stroke="none"/><text xml:space="preserve" x="5" y="18" stroke="none" text-anchor="left" font-family="sans-serif" font-size="16" font-weight="normal" fill="#000000">0.5</text></g></g></g></g><g class="relationship"><g transform="translate(279.7832763154612 -236.27263493217455) rotate(150.00000000000003)" stroke-width="5" stroke="#000000"><path d="M 59 0 L 286.90631074381724 0"/><polygon points="-24.8621506177483,0 -27.62461179749811,9.20820393249937 0,0 -27.62461179749811,-9.20820393249937" fill="#000000" transform="translate(311.7684613615655 0) rotate(0)" stroke="none"/></g><g transform="translate(130.00145009871127 -149.79605724622024) rotate(330.00000000000006) translate(0 -13)"><g transform="translate(0 0)"><g transform="translate(-13.8984375 0)" fill="#ffffff" stroke="#000000" stroke-width="0"><rect x="0" y="0" width="27.796875" height="26" rx="5" ry="5" stroke="none"/><text xml:space="preserve" x="5" y="18" stroke="none" text-anchor="left" font-family="sans-serif" font-size="16" font-weight="normal" fill="#000000">10</text></g></g></g></g><g class="relationship"><g transform="translate(319.6859344230732 117.09806604938296) rotate(-155.04557498377588)" stroke-width="5" stroke="#000000"><path d="M 59 0 L 314.30702929038534 0"/><polygon points="-24.8621506177483,0 -27.62461179749811,9.20820393249937 0,0 -27.62461179749811,-9.20820393249937" fill="#000000" transform="translate(339.16917990813363 0) rotate(0)" stroke="none"/></g><g transform="translate(150.45770781681708 38.34946701990954) rotate(24.95442501622413) translate(0 -13)"><g transform="translate(0 0)"><g transform="translate(-9.44921875 0)" fill="#ffffff" stroke="#000000" stroke-width="0"><rect x="0" y="0" width="18.8984375" height="26" rx="5" ry="5" stroke="none"/><text xml:space="preserve" x="5" y="18" stroke="none" text-anchor="left" font-family="sans-serif" font-size="16" font-weight="normal" fill="#000000">2</text></g></g></g></g><g class="relationship"><g transform="translate(319.6859344230732 117.09806604938296) rotate(175.12012008184578)" stroke-width="5" stroke="#000000"><path d="M 59 0 L 278.4487075135793 0"/><polygon points="-24.8621506177483,0 -27.62461179749811,9.20820393249937 0,0 -27.62461179749811,-9.20820393249937" fill="#000000" transform="translate(303.3108581313276 0) rotate(0)" stroke="none"/></g><g transform="translate(151.57316765755903 131.45094733120666) rotate(355.12012008184576) translate(0 -13)"><g transform="translate(0 0)"><g transform="translate(-9.44921875 0)" fill="#ffffff" stroke="#000000" stroke-width="0"><rect x="0" y="0" width="18.8984375" height="26" rx="5" ry="5" stroke="none"/><text xml:space="preserve" x="5" y="18" stroke="none" text-anchor="left" font-family="sans-serif" font-size="16" font-weight="normal" fill="#000000">1</text></g></g></g></g><g class="relationship"><g transform="translate(166.9105037004836 288.49668499863384) rotate(-121.53026643022007)" stroke-width="5" stroke="#000000"><path d="M 59 0 L 314.30702929038534 0"/><polygon points="-24.8621506177483,0 -27.62461179749811,9.20820393249937 0,0 -27.62461179749811,-9.20820393249937" fill="#000000" transform="translate(339.16917990813363 0) rotate(0)" stroke="none"/></g><g transform="translate(69.30025391097601 129.39994189735884) rotate(58.469733569779926) translate(0 -13)"><g transform="translate(0 0)"><g transform="translate(-9.44921875 0)" fill="#ffffff" stroke="#000000" stroke-width="0"><rect x="0" y="0" width="18.8984375" height="26" rx="5" ry="5" stroke="none"/><text xml:space="preserve" x="5" y="18" stroke="none" text-anchor="left" font-family="sans-serif" font-size="16" font-weight="normal" fill="#000000">2</text></g></g></g></g><g class="node"><g fill="#ffffff" stroke="#000000" stroke-width="4"><circle cx="-41.3116301457236" cy="-50.88840425139179" r="52"/></g><g transform="translate(-41.3116301457236 -50.88840425139179)"><g transform="scale(1) translate(0 0)"><g transform="translate(0 0)"><g font-family="sans-serif" font-size="26" font-weight="normal" fill="#000000" text-anchor="middle"><text xml:space="preserve" x="0" y="7.5" stroke="none">user 0</text></g></g></g></g></g><g class="node"><g fill="#ffffff" stroke="#000000" stroke-width="4"><circle cx="222.69890057470576" cy="-50.88840425139179" r="52"/></g><g transform="translate(222.69890057470576 -50.88840425139179)"><g transform="scale(1) translate(0 0)"><g transform="translate(0 0)"><g font-family="sans-serif" font-size="26" font-weight="normal" fill="#000000" text-anchor="middle"><text xml:space="preserve" x="0" y="7.5" stroke="none">user 1</text></g></g></g></g></g><g class="node"><g fill="#ffffff" stroke="#000000" stroke-width="4"><circle cx="279.7832763154612" cy="-236.27263493217455" r="52"/></g><g transform="translate(279.7832763154612 -236.27263493217455)"><g transform="scale(1) translate(0 0)"><g transform="translate(0 0)"><g font-family="sans-serif" font-size="26" font-weight="normal" fill="#000000" text-anchor="middle"><text xml:space="preserve" x="0" y="7.5" stroke="none">user 2</text></g></g></g></g></g><g class="node"><g fill="#ffffff" stroke="#000000" stroke-width="4"><circle cx="319.6859344230732" cy="117.09806604938296" r="52"/></g><g transform="translate(319.6859344230732 117.09806604938296)"><g transform="scale(1) translate(0 0)"><g transform="translate(0 0)"><g font-family="sans-serif" font-size="26" font-weight="normal" fill="#000000" text-anchor="middle"><text xml:space="preserve" x="0" y="7.5" stroke="none">user 3</text></g></g></g></g></g><g class="node"><g fill="#ffffff" stroke="#000000" stroke-width="4"><circle cx="-240.11881256118534" cy="-50.88840425139179" r="52"/></g><g transform="translate(-240.11881256118534 -50.88840425139179)"><g transform="scale(1) translate(0 0)"><g transform="translate(0 0)"><g font-family="sans-serif" font-size="26" font-weight="normal" fill="#000000" text-anchor="middle"><text xml:space="preserve" x="0" y="7.5" stroke="none">user 4</text></g></g></g></g></g><g class="node"><g fill="#ffffff" stroke="#000000" stroke-width="4"><circle cx="-41.3116301457236" cy="147.91877816406992" r="52"/></g><g transform="translate(-41.3116301457236 147.91877816406992)"><g transform="scale(1) translate(0 0)"><g transform="translate(0 0)"><g font-family="sans-serif" font-size="26" font-weight="normal" fill="#000000" text-anchor="middle"><text xml:space="preserve" x="0" y="7.5" stroke="none">user 5</text></g></g></g></g></g><g class="node"><g fill="#ffffff" stroke="#000000" stroke-width="4"><circle cx="166.9105037004836" cy="288.49668499863384" r="52"/></g><g transform="translate(166.9105037004836 288.49668499863384)"><g transform="scale(1) translate(0 0)"><g transform="translate(0 0)"><g font-family="sans-serif" font-size="26" font-weight="normal" fill="#000000" text-anchor="middle"><text xml:space="preserve" x="0" y="7.5" stroke="none">user 6</text></g></g></g></g></g><g class="node"><g fill="#ffffff" stroke="#000000" stroke-width="4"><circle cx="-181.8895369802875" cy="288.49668499863384" r="52"/></g><g transform="translate(-181.8895369802875 288.49668499863384)"><g transform="scale(1) translate(0 0)"><g transform="translate(0 0)"><g font-family="sans-serif" font-size="26" font-weight="normal" fill="#000000" text-anchor="middle"><text xml:space="preserve" x="0" y="7.5" stroke="none">user 7</text></g></g></g></g></g></g></svg>